# xmcd CD database file
#
# Track frame offsets:
#	150
#	12629
#	30339
#	45311
#	64019
#	77931
#	93802
#	111428
#	129254
#	145682
#	160709
#	173111
#	188660
#	207358
#	221002
#	238121
#	252577
#	269668
#	286364
#	287552
#	288748
#	290055
#
# Disc length: 3882 seconds
#
# Revision: 0
# Processed by: cddbd v1.5.2PL0 Copyright (c) Steve Scherf et al.
# Submitted via: CDex 1.70beta2
#
DISCID=510f2816
DTITLE=Various Artist - CDX Volume 459 Oct 2008
DYEAR=2008
DGENRE=Country
TTITLE0=The Lost Trailers - How 'Bout You Don't
TTITLE1=Jamie O'Neal - Like a Woman
TTITLE2=Sarah Buxton - Space
TTITLE3=Dean Brody - Brothers
TTITLE4=Blackhawk - Love Like This (Radio Edit)
TTITLE5=Lane Brody - Found In Each Other
TTITLE6=Tracy Lawrence - You Can't Hide Redneck
TTITLE7=Will Hedgecock - Sweet Music Man
TTITLE8=The Springs - Are You An Angel
TTITLE9=Holly Cieri - Bad For My Own Good
TTITLE10=Shelley Lynch - Dream Big
TTITLE11=Western Underground - Good Ol' Days To Come
TTITLE12=Eric Hancock - He Said She Said
TTITLE13=Chad Reilly - I Got The Time
TTITLE14=Stephen Dale - Longshot
TTITLE15=Pat Garrett - Moose Shootin' Mama
TTITLE16=Deris Kentson - The Birthday Song
TTITLE17=Nashiville Session Players - Who Would Jesus Bomb
TTITLE18=Pat Green - CMA Liner
TTITLE19=Brad Paisley -  CMA Liner
TTITLE20=Carrie Underwood - CMA Liner
TTITLE21=Chuck Wicks -  CMA Liner
EXTD=YEAR: 2008
EXTT0=
EXTT1=
EXTT2=
EXTT3=
EXTT4=
EXTT5=
EXTT6=
EXTT7=
EXTT8=
EXTT9=
EXTT10=
EXTT11=
EXTT12=
EXTT13=
EXTT14=
EXTT15=
EXTT16=
EXTT17=
EXTT18=
EXTT19=
EXTT20=
EXTT21=
PLAYORDER=
